<?xml version="1.0" standalone="no"?>
<!DOCTYPE svg PUBLIC "-//W3C//DTD SVG 20010904//EN"
 "http://www.w3.org/TR/2001/REC-SVG-20010904/DTD/svg10.dtd">
<svg version="1.0" xmlns="http://www.w3.org/2000/svg"
 width="700.000000pt" height="700.000000pt" viewBox="0 0 700.000000 700.000000"
 preserveAspectRatio="xMidYMid meet">
<metadata>
Created by potrace 1.14, written by Peter Selinger 2001-2017
</metadata>
<g transform="translate(0.000000,700.000000) scale(0.100000,-0.100000)"
fill="#000000" stroke="none">
<path d="M1965 6987 c-224 -57 -378 -260 -369 -487 10 -261 229 -465 495 -461
l58 1 39 -83 c107 -219 161 -340 157 -347 -2 -4 -305 -7 -672 -7 -367 0 -680
-4 -695 -8 -34 -9 -87 -68 -89 -98 -3 -41 1 -79 10 -95 5 -9 561 -568 1237
-1243 l1228 -1228 0 -1313 c1 -722 0 -1320 -2 -1328 -3 -13 -74 -15 -590 -16
-563 0 -589 -1 -621 -20 -93 -54 -87 -187 10 -236 32 -17 117 -18 1345 -18
l1311 0 41 29 c61 45 75 108 38 178 -35 68 -16 66 -668 67 -400 0 -588 4 -589
11 0 5 -1 603 -1 1328 l-1 1318 1222 1222 c672 672 1228 1232 1236 1243 14 21
19 54 16 101 -2 36 -58 91 -99 99 -20 4 -783 7 -1694 7 l-1657 0 -17 36 c-10
20 -69 144 -131 276 -68 143 -111 244 -106 251 4 6 29 39 55 72 193 255 67
644 -240 739 -65 20 -196 25 -257 10z m558 -1734 c19 -43 67 -143 105 -223 38
-80 83 -174 100 -210 17 -36 62 -132 101 -214 39 -81 69 -151 67 -155 -2 -3
-152 -6 -333 -5 l-328 1 -437 438 c-241 240 -438 439 -438 441 0 2 254 4 563
4 l564 0 36 -77z m3117 73 c0 -6 -870 -876 -878 -877 -4 -1 -355 -2 -781 -2
l-774 -2 -27 60 c-15 33 -51 110 -80 170 -29 61 -69 146 -90 190 -115 243
-135 286 -167 355 -19 41 -39 83 -44 93 -9 16 61 17 1416 17 784 0 1425 -2
1425 -4z"/>
<path d="M4831 5142 c-120 -66 -74 -252 62 -252 105 0 171 105 123 198 -33 64
-121 90 -185 54z"/>
<path d="M3715 5139 c-54 -7 -82 -24 -105 -62 -40 -65 -15 -158 50 -192 26
-13 87 -16 443 -16 250 0 423 4 439 10 35 13 76 59 84 94 16 73 -33 150 -105
163 -43 9 -749 11 -806 3z"/>
</g>
</svg>
